<mxfile host="app.diagrams.net" modified="2024-05-09T10:08:59.619Z" agent="Mozilla/5.0 (Windows NT 10.0; Win64; x64) AppleWebKit/537.36 (KHTML, like Gecko) Chrome/124.0.0.0 Safari/537.36" etag="SVUDuVBfQ36PEeEnVxvC" version="24.3.0" type="device">
  <diagram name="Page-1" id="OGcO0MlLEMz6zWmeQDyq">
    <mxGraphModel dx="1434" dy="784" grid="1" gridSize="10" guides="1" tooltips="1" connect="1" arrows="1" fold="1" page="1" pageScale="1" pageWidth="827" pageHeight="1169" math="0" shadow="0">
      <root>
        <mxCell id="0" />
        <mxCell id="1" parent="0" />
        <mxCell id="pGylK8f-HV0HRmeTleGy-1" value="&amp;nbsp;CLIENT" style="rounded=0;whiteSpace=wrap;html=1;verticalAlign=top;align=left;" vertex="1" parent="1">
          <mxGeometry x="40" y="30" width="210" height="1340" as="geometry" />
        </mxCell>
        <mxCell id="pGylK8f-HV0HRmeTleGy-4" value="Uporabnik izbere vsa orodja in parametre" style="rounded=0;whiteSpace=wrap;html=1;" vertex="1" parent="1">
          <mxGeometry x="60" y="60" width="170" height="80" as="geometry" />
        </mxCell>
        <mxCell id="pGylK8f-HV0HRmeTleGy-9" value="Uporabnik klikne na gumb &quot;Run&quot;" style="rounded=0;whiteSpace=wrap;html=1;" vertex="1" parent="1">
          <mxGeometry x="60" y="180" width="170" height="80" as="geometry" />
        </mxCell>
        <mxCell id="pGylK8f-HV0HRmeTleGy-10" value="" style="endArrow=classic;html=1;rounded=0;exitX=0.5;exitY=1;exitDx=0;exitDy=0;entryX=0.5;entryY=0;entryDx=0;entryDy=0;" edge="1" parent="1" source="pGylK8f-HV0HRmeTleGy-4" target="pGylK8f-HV0HRmeTleGy-9">
          <mxGeometry width="50" height="50" relative="1" as="geometry">
            <mxPoint x="390" y="230" as="sourcePoint" />
            <mxPoint x="440" y="180" as="targetPoint" />
          </mxGeometry>
        </mxCell>
        <mxCell id="pGylK8f-HV0HRmeTleGy-13" value="Generiranje json strukture z podatki o izbranih orodjih in njihovih parametrih" style="rounded=0;whiteSpace=wrap;html=1;" vertex="1" parent="1">
          <mxGeometry x="60" y="300" width="170" height="80" as="geometry" />
        </mxCell>
        <mxCell id="pGylK8f-HV0HRmeTleGy-14" value="" style="endArrow=classic;html=1;rounded=0;exitX=0.5;exitY=1;exitDx=0;exitDy=0;entryX=0.5;entryY=0;entryDx=0;entryDy=0;" edge="1" parent="1" source="pGylK8f-HV0HRmeTleGy-9" target="pGylK8f-HV0HRmeTleGy-13">
          <mxGeometry width="50" height="50" relative="1" as="geometry">
            <mxPoint x="530" y="217.9661016949152" as="sourcePoint" />
            <mxPoint x="720" y="160" as="targetPoint" />
          </mxGeometry>
        </mxCell>
        <mxCell id="pGylK8f-HV0HRmeTleGy-16" value="Pošiljanje json-a na backend POST /run_tools" style="rounded=0;whiteSpace=wrap;html=1;" vertex="1" parent="1">
          <mxGeometry x="60" y="420" width="170" height="80" as="geometry" />
        </mxCell>
        <mxCell id="pGylK8f-HV0HRmeTleGy-17" value="" style="endArrow=classic;html=1;rounded=0;exitX=0.5;exitY=1;exitDx=0;exitDy=0;entryX=0.5;entryY=0;entryDx=0;entryDy=0;" edge="1" parent="1" source="pGylK8f-HV0HRmeTleGy-13" target="pGylK8f-HV0HRmeTleGy-16">
          <mxGeometry width="50" height="50" relative="1" as="geometry">
            <mxPoint x="350" y="310" as="sourcePoint" />
            <mxPoint x="400" y="260" as="targetPoint" />
          </mxGeometry>
        </mxCell>
        <mxCell id="pGylK8f-HV0HRmeTleGy-19" value="&amp;nbsp;SERVER" style="rounded=0;whiteSpace=wrap;html=1;verticalAlign=top;align=left;" vertex="1" parent="1">
          <mxGeometry x="360" y="30" width="210" height="1220" as="geometry" />
        </mxCell>
        <mxCell id="pGylK8f-HV0HRmeTleGy-20" value="Prejem json&amp;nbsp;&lt;div style=&quot;font-size: 12px;&quot;&gt;POST /run_tools&lt;/div&gt;" style="rounded=0;whiteSpace=wrap;html=1;spacingTop=0;fontSize=12;align=center;verticalAlign=middle;fontStyle=0;fontFamily=Helvetica;" vertex="1" parent="1">
          <mxGeometry x="380" y="60" width="170" height="80" as="geometry" />
        </mxCell>
        <mxCell id="pGylK8f-HV0HRmeTleGy-21" value="Procesiranje json" style="rounded=0;whiteSpace=wrap;html=1;" vertex="1" parent="1">
          <mxGeometry x="380" y="180" width="170" height="80" as="geometry" />
        </mxCell>
        <mxCell id="pGylK8f-HV0HRmeTleGy-22" value="" style="endArrow=classic;html=1;rounded=0;exitX=0.5;exitY=1;exitDx=0;exitDy=0;entryX=0.5;entryY=0;entryDx=0;entryDy=0;" edge="1" parent="1" source="pGylK8f-HV0HRmeTleGy-20" target="pGylK8f-HV0HRmeTleGy-21">
          <mxGeometry width="50" height="50" relative="1" as="geometry">
            <mxPoint x="390" y="330" as="sourcePoint" />
            <mxPoint x="440" y="280" as="targetPoint" />
          </mxGeometry>
        </mxCell>
        <mxCell id="pGylK8f-HV0HRmeTleGy-23" value="Ustvarjanje novega &quot;iskanja&quot; v bazi" style="rounded=0;whiteSpace=wrap;html=1;" vertex="1" parent="1">
          <mxGeometry x="380" y="300" width="170" height="80" as="geometry" />
        </mxCell>
        <mxCell id="pGylK8f-HV0HRmeTleGy-24" value="" style="endArrow=classic;html=1;rounded=0;exitX=0.5;exitY=1;exitDx=0;exitDy=0;entryX=0.5;entryY=0;entryDx=0;entryDy=0;" edge="1" parent="1" source="pGylK8f-HV0HRmeTleGy-21" target="pGylK8f-HV0HRmeTleGy-23">
          <mxGeometry width="50" height="50" relative="1" as="geometry">
            <mxPoint x="390" y="330" as="sourcePoint" />
            <mxPoint x="440" y="280" as="targetPoint" />
          </mxGeometry>
        </mxCell>
        <mxCell id="pGylK8f-HV0HRmeTleGy-25" value="&lt;div&gt;&lt;div&gt;Klicanje funkcije za vsako orodje, ki nastavi parametre, ki so potrebni za klic na API&lt;/div&gt;&lt;/div&gt;" style="rounded=0;whiteSpace=wrap;html=1;" vertex="1" parent="1">
          <mxGeometry x="380" y="420" width="170" height="80" as="geometry" />
        </mxCell>
        <mxCell id="pGylK8f-HV0HRmeTleGy-27" value="" style="endArrow=classic;html=1;rounded=0;exitX=0.5;exitY=1;exitDx=0;exitDy=0;entryX=0.5;entryY=0;entryDx=0;entryDy=0;" edge="1" parent="1" source="pGylK8f-HV0HRmeTleGy-23" target="pGylK8f-HV0HRmeTleGy-25">
          <mxGeometry width="50" height="50" relative="1" as="geometry">
            <mxPoint x="700" y="400" as="sourcePoint" />
            <mxPoint x="750" y="350" as="targetPoint" />
          </mxGeometry>
        </mxCell>
        <mxCell id="pGylK8f-HV0HRmeTleGy-28" value="Funkcija orodja kliče funkcijo &quot;orodjeAPI(parameter,....)&quot;" style="rounded=0;whiteSpace=wrap;html=1;" vertex="1" parent="1">
          <mxGeometry x="380" y="544.5" width="170" height="80" as="geometry" />
        </mxCell>
        <mxCell id="pGylK8f-HV0HRmeTleGy-29" value="" style="endArrow=classic;html=1;rounded=0;exitX=0.5;exitY=1;exitDx=0;exitDy=0;entryX=0.5;entryY=0;entryDx=0;entryDy=0;" edge="1" parent="1" source="pGylK8f-HV0HRmeTleGy-25" target="pGylK8f-HV0HRmeTleGy-28">
          <mxGeometry width="50" height="50" relative="1" as="geometry">
            <mxPoint x="390" y="530" as="sourcePoint" />
            <mxPoint x="440" y="480" as="targetPoint" />
          </mxGeometry>
        </mxCell>
        <mxCell id="pGylK8f-HV0HRmeTleGy-30" value="Funkcija orodja kliče funkcijo &quot;orodjeAPI(parameter,....)&quot;, ki sestavi klic na API in opravi klic na API orodja" style="rounded=0;whiteSpace=wrap;html=1;" vertex="1" parent="1">
          <mxGeometry x="380" y="670" width="170" height="80" as="geometry" />
        </mxCell>
        <mxCell id="pGylK8f-HV0HRmeTleGy-31" value="" style="endArrow=classic;html=1;rounded=0;exitX=0.5;exitY=1;exitDx=0;exitDy=0;entryX=0.5;entryY=0;entryDx=0;entryDy=0;" edge="1" parent="1" source="pGylK8f-HV0HRmeTleGy-28" target="pGylK8f-HV0HRmeTleGy-30">
          <mxGeometry width="50" height="50" relative="1" as="geometry">
            <mxPoint x="390" y="730" as="sourcePoint" />
            <mxPoint x="440" y="680" as="targetPoint" />
          </mxGeometry>
        </mxCell>
        <mxCell id="pGylK8f-HV0HRmeTleGy-34" value="API-ji orodij&lt;div&gt;&amp;nbsp;(razen E-mailPermutator)&lt;/div&gt;" style="rounded=0;whiteSpace=wrap;html=1;" vertex="1" parent="1">
          <mxGeometry x="680" y="730" width="210" height="90" as="geometry" />
        </mxCell>
        <mxCell id="pGylK8f-HV0HRmeTleGy-35" value="" style="endArrow=classic;html=1;rounded=0;exitX=1;exitY=0.5;exitDx=0;exitDy=0;entryX=0;entryY=0.5;entryDx=0;entryDy=0;" edge="1" parent="1" source="pGylK8f-HV0HRmeTleGy-16" target="pGylK8f-HV0HRmeTleGy-20">
          <mxGeometry width="50" height="50" relative="1" as="geometry">
            <mxPoint x="390" y="380" as="sourcePoint" />
            <mxPoint x="440" y="330" as="targetPoint" />
            <Array as="points">
              <mxPoint x="300" y="460" />
              <mxPoint x="300" y="100" />
            </Array>
          </mxGeometry>
        </mxCell>
        <mxCell id="pGylK8f-HV0HRmeTleGy-37" value="" style="endArrow=classic;html=1;rounded=0;exitX=1;exitY=0.5;exitDx=0;exitDy=0;entryX=0;entryY=0.25;entryDx=0;entryDy=0;" edge="1" parent="1" source="pGylK8f-HV0HRmeTleGy-30" target="pGylK8f-HV0HRmeTleGy-34">
          <mxGeometry width="50" height="50" relative="1" as="geometry">
            <mxPoint x="390" y="680" as="sourcePoint" />
            <mxPoint x="670" y="710" as="targetPoint" />
          </mxGeometry>
        </mxCell>
        <mxCell id="pGylK8f-HV0HRmeTleGy-41" value="klic&amp;nbsp;" style="edgeLabel;html=1;align=center;verticalAlign=middle;resizable=0;points=[];" vertex="1" connectable="0" parent="pGylK8f-HV0HRmeTleGy-37">
          <mxGeometry x="0.023" relative="1" as="geometry">
            <mxPoint as="offset" />
          </mxGeometry>
        </mxCell>
        <mxCell id="pGylK8f-HV0HRmeTleGy-42" value="Izbor smiselnih podatkov iz odgovora&lt;div&gt;Shranjevanje izbranih podatkov v bazo(pod trenutno &quot;iskanje&quot;)&lt;/div&gt;" style="rounded=0;whiteSpace=wrap;html=1;" vertex="1" parent="1">
          <mxGeometry x="380" y="790" width="170" height="80" as="geometry" />
        </mxCell>
        <mxCell id="pGylK8f-HV0HRmeTleGy-46" value="odgovor" style="endArrow=classic;html=1;rounded=0;entryX=1;entryY=0.5;entryDx=0;entryDy=0;exitX=0;exitY=0.75;exitDx=0;exitDy=0;" edge="1" parent="1" source="pGylK8f-HV0HRmeTleGy-34" target="pGylK8f-HV0HRmeTleGy-42">
          <mxGeometry width="50" height="50" relative="1" as="geometry">
            <mxPoint x="680" y="830" as="sourcePoint" />
            <mxPoint x="650" y="750" as="targetPoint" />
          </mxGeometry>
        </mxCell>
        <mxCell id="pGylK8f-HV0HRmeTleGy-48" value="&lt;div&gt;Shranjevanje izbranih podatkov v bazo(za trenutno &quot;iskanje&quot; v bazi) za vsako orodje uporabljeno v tem &quot;iskanju&quot;&lt;/div&gt;" style="rounded=0;whiteSpace=wrap;html=1;" vertex="1" parent="1">
          <mxGeometry x="380" y="910" width="170" height="80" as="geometry" />
        </mxCell>
        <mxCell id="pGylK8f-HV0HRmeTleGy-50" value="" style="endArrow=classic;html=1;rounded=0;exitX=0.5;exitY=1;exitDx=0;exitDy=0;entryX=0.5;entryY=0;entryDx=0;entryDy=0;" edge="1" parent="1" source="pGylK8f-HV0HRmeTleGy-42" target="pGylK8f-HV0HRmeTleGy-48">
          <mxGeometry width="50" height="50" relative="1" as="geometry">
            <mxPoint x="390" y="880" as="sourcePoint" />
            <mxPoint x="440" y="830" as="targetPoint" />
          </mxGeometry>
        </mxCell>
        <mxCell id="pGylK8f-HV0HRmeTleGy-53" value="Pridobivanje vseh rezultatov orodij za to &quot;iskanje&quot; iz baze" style="rounded=0;whiteSpace=wrap;html=1;" vertex="1" parent="1">
          <mxGeometry x="380" y="1030" width="170" height="80" as="geometry" />
        </mxCell>
        <mxCell id="pGylK8f-HV0HRmeTleGy-54" value="" style="endArrow=classic;html=1;rounded=0;exitX=0.5;exitY=1;exitDx=0;exitDy=0;entryX=0.5;entryY=0;entryDx=0;entryDy=0;" edge="1" parent="1" source="pGylK8f-HV0HRmeTleGy-48" target="pGylK8f-HV0HRmeTleGy-53">
          <mxGeometry width="50" height="50" relative="1" as="geometry">
            <mxPoint x="390" y="1180" as="sourcePoint" />
            <mxPoint x="440" y="1130" as="targetPoint" />
          </mxGeometry>
        </mxCell>
        <mxCell id="pGylK8f-HV0HRmeTleGy-62" value="Ko prejme rezultate vseh orodij" style="edgeLabel;html=1;align=center;verticalAlign=middle;resizable=0;points=[];" vertex="1" connectable="0" parent="pGylK8f-HV0HRmeTleGy-54">
          <mxGeometry x="-0.15" y="3" relative="1" as="geometry">
            <mxPoint as="offset" />
          </mxGeometry>
        </mxCell>
        <mxCell id="pGylK8f-HV0HRmeTleGy-55" value="Ustvarjanje json strukture vseh rezultatov orodij v smiselno celoto&amp;nbsp;" style="rounded=0;whiteSpace=wrap;html=1;" vertex="1" parent="1">
          <mxGeometry x="380" y="1150" width="170" height="80" as="geometry" />
        </mxCell>
        <mxCell id="pGylK8f-HV0HRmeTleGy-56" value="" style="endArrow=classic;html=1;rounded=0;exitX=0.5;exitY=1;exitDx=0;exitDy=0;entryX=0.5;entryY=0;entryDx=0;entryDy=0;" edge="1" parent="1" source="pGylK8f-HV0HRmeTleGy-53" target="pGylK8f-HV0HRmeTleGy-55">
          <mxGeometry width="50" height="50" relative="1" as="geometry">
            <mxPoint x="390" y="1080" as="sourcePoint" />
            <mxPoint x="440" y="1030" as="targetPoint" />
          </mxGeometry>
        </mxCell>
        <mxCell id="pGylK8f-HV0HRmeTleGy-57" value="Prikaz rezultatov celotnega iskanja" style="rounded=0;whiteSpace=wrap;html=1;" vertex="1" parent="1">
          <mxGeometry x="60" y="1150" width="170" height="80" as="geometry" />
        </mxCell>
        <mxCell id="pGylK8f-HV0HRmeTleGy-58" value="" style="endArrow=classic;html=1;rounded=0;exitX=0;exitY=0.5;exitDx=0;exitDy=0;entryX=1;entryY=0.5;entryDx=0;entryDy=0;" edge="1" parent="1" source="pGylK8f-HV0HRmeTleGy-55" target="pGylK8f-HV0HRmeTleGy-57">
          <mxGeometry width="50" height="50" relative="1" as="geometry">
            <mxPoint x="390" y="1180" as="sourcePoint" />
            <mxPoint x="440" y="1130" as="targetPoint" />
          </mxGeometry>
        </mxCell>
        <mxCell id="pGylK8f-HV0HRmeTleGy-59" value="json&lt;div&gt;(rezultati orodij)&lt;/div&gt;" style="edgeLabel;html=1;align=center;verticalAlign=middle;resizable=0;points=[];" vertex="1" connectable="0" parent="pGylK8f-HV0HRmeTleGy-58">
          <mxGeometry x="0.08" y="-2" relative="1" as="geometry">
            <mxPoint as="offset" />
          </mxGeometry>
        </mxCell>
        <mxCell id="pGylK8f-HV0HRmeTleGy-60" value="Shranjevanje iskanja/Brisanje iskanja" style="rounded=0;whiteSpace=wrap;html=1;" vertex="1" parent="1">
          <mxGeometry x="60" y="1270" width="170" height="80" as="geometry" />
        </mxCell>
        <mxCell id="pGylK8f-HV0HRmeTleGy-61" value="" style="endArrow=classic;html=1;rounded=0;exitX=0.5;exitY=1;exitDx=0;exitDy=0;entryX=0.5;entryY=0;entryDx=0;entryDy=0;" edge="1" parent="1" source="pGylK8f-HV0HRmeTleGy-57" target="pGylK8f-HV0HRmeTleGy-60">
          <mxGeometry width="50" height="50" relative="1" as="geometry">
            <mxPoint x="390" y="1180" as="sourcePoint" />
            <mxPoint x="440" y="1130" as="targetPoint" />
          </mxGeometry>
        </mxCell>
      </root>
    </mxGraphModel>
  </diagram>
</mxfile>
